<?xml version="1.0" standalone="no"?>
<!DOCTYPE svg PUBLIC "-//W3C//DTD SVG 20010904//EN"
 "http://www.w3.org/TR/2001/REC-SVG-20010904/DTD/svg10.dtd">
<svg version="1.0" xmlns="http://www.w3.org/2000/svg"
 width="250.000000pt" height="250.000000pt" viewBox="0 0 250.000000 250.000000"
 preserveAspectRatio="xMidYMid meet">
<metadata>
Created by potrace 1.14, written by Peter Selinger 2001-2017
</metadata>
<g transform="translate(0.000000,250.000000) scale(0.100000,-0.100000)"
fill="#000000" stroke="none">
<path d="M2419 2481 c14 -10 37 -26 53 -35 l28 -17 0 35 0 36 -52 0 -53 0 24
-19z"/>
<path d="M1101 2366 c-35 -26 -114 -115 -132 -148 -10 -19 -18 -20 -117 -14
-59 4 -147 3 -197 -3 l-90 -10 -65 70 c-69 74 -114 109 -142 109 -58 0 -147
-158 -199 -355 -28 -104 -32 -137 -33 -250 -1 -111 3 -140 22 -199 38 -114
111 -212 203 -273 l40 -26 -8 -61 c-12 -89 -7 -187 12 -252 19 -66 92 -147
143 -159 39 -8 46 -18 49 -70 7 -101 131 -263 253 -332 145 -81 299 -114 525
-114 176 0 283 15 417 57 286 90 490 291 560 551 30 112 30 295 0 418 -29 117
-96 253 -167 338 -168 203 -458 312 -726 274 l-56 -8 -6 44 c-9 63 -73 252
-110 321 -62 116 -109 141 -176 92z m110 -114 c59 -99 119 -300 135 -452 17
-166 -66 -352 -198 -447 -26 -19 -48 -39 -48 -44 0 -19 48 -8 92 21 138 92
218 254 218 447 l0 82 63 3 c163 8 289 -21 451 -105 152 -79 278 -236 342
-427 26 -78 29 -97 29 -230 0 -133 -2 -152 -29 -234 -67 -204 -224 -361 -451
-451 -213 -84 -555 -98 -786 -31 -148 43 -300 163 -354 278 -31 67 -31 99 -1
135 20 23 31 27 70 25 52 -2 88 -18 161 -72 73 -54 202 -125 265 -146 84 -29
323 -26 445 4 215 54 399 187 490 354 25 46 28 78 6 78 -6 0 -26 -24 -46 -54
-20 -30 -69 -85 -109 -124 -123 -117 -256 -182 -423 -207 -240 -36 -341 -4
-267 84 30 36 89 64 171 82 74 16 93 25 93 48 0 12 -15 25 -42 37 -57 25 -114
78 -141 128 -30 59 -29 173 2 238 43 88 149 160 258 174 62 7 72 30 17 40 -44
8 -134 -9 -190 -37 -54 -26 -118 -91 -146 -149 -16 -32 -23 -69 -26 -130 -5
-109 18 -178 83 -241 46 -46 54 -59 33 -59 -7 0 -40 -13 -73 -28 -76 -37 -125
-90 -125 -137 0 -19 -2 -35 -5 -35 -25 0 -175 86 -175 99 0 3 19 14 41 24 45
21 79 76 79 128 0 132 -132 253 -289 266 -59 4 -72 2 -121 -24 -39 -21 -61
-41 -78 -70 -21 -39 -22 -42 -5 -58 16 -17 18 -16 33 5 55 82 121 106 214 77
81 -26 140 -69 165 -119 27 -56 27 -98 -1 -133 -19 -25 -26 -27 -78 -23 -41 3
-70 13 -108 36 -52 32 -82 40 -82 23 0 -5 -22 -11 -49 -13 -27 -3 -62 -14 -78
-26 -26 -18 -35 -20 -66 -11 -50 14 -92 51 -112 101 -21 52 -30 157 -20 233 6
52 8 56 28 50 38 -12 171 -16 186 -7 29 20 4 42 -48 42 -59 0 -179 41 -238 81
-80 55 -140 148 -170 262 -39 152 20 459 122 633 14 24 30 44 35 44 4 0 47
-39 94 -87 l85 -86 41 12 c27 8 102 11 223 10 l182 -2 33 44 c53 69 125 140
141 137 7 -2 31 -32 52 -66z"/>
<path d="M975 1815 c-34 -33 -35 -102 -2 -133 42 -40 107 -25 126 29 32 91
-60 169 -124 104z"/>
<path d="M458 1810 c-9 -6 -22 -26 -28 -45 -31 -93 92 -159 136 -73 18 35 13
82 -13 110 -17 19 -67 24 -95 8z"/>
<path d="M709 1600 c-33 -37 -40 -40 -87 -40 -45 0 -52 -3 -52 -20 0 -44 95
-55 151 -17 l35 23 43 -23 c51 -27 90 -29 132 -7 22 11 29 21 27 37 -3 20 -8
22 -63 19 -57 -3 -61 -2 -94 32 -19 20 -40 36 -45 36 -6 0 -27 -18 -47 -40z"/>
</g>
</svg>
